<?xml version="1.0" encoding="utf-8"?>
<!-- Generator: Adobe Illustrator 23.0.1, SVG Export Plug-In . SVG Version: 6.00 Build 0)  -->
<svg version="1.1" id="Layer_1" xmlns="http://www.w3.org/2000/svg" xmlns:xlink="http://www.w3.org/1999/xlink" x="0px" y="0px"
	 viewBox="0 0 618.5 181.69" style="enable-background:new 0 0 618.5 181.69;" xml:space="preserve">
<style type="text/css">
	.st0{fill:#FFFFFF;}
	.st1{font-family:'Montserrat-SemiBold';}
	.st2{font-size:148.1121px;}
	.st3{fill:none;stroke:#FFFFFF;stroke-width:8;stroke-miterlimit:10;}
	.st4{fill:none;stroke:#FFFFFF;stroke-width:4;stroke-miterlimit:10;}
	.st5{fill:none;stroke:#FFFFFF;stroke-width:9;stroke-miterlimit:10;}
	.st6{font-family:'Montserrat-ExtraLight';}
	.st7{font-size:57.241px;}
</style>
<g>
	<text transform="matrix(1 0 0 1 135.4417 134.3199)" class="st0 st1 st2">IKE</text>
	<circle class="st3" cx="97.41" cy="36.56" r="28.44"/>
	<circle class="st3" cx="97.41" cy="137.73" r="28.44"/>
	<circle class="st4" cx="98.22" cy="82.19" r="8.79"/>
	<polyline class="st4" points="98.22,76.9 98.22,40.77 42.79,72.14 42.79,119.19 98.22,141.23 	"/>
	<polyline class="st4" points="90.54,86.47 42.79,115.69 27.11,109.73 27.11,135.22 	"/>
	<line class="st5" x1="30.35" y1="50.74" x2="30.35" y2="75.29"/>
	<polyline class="st4" points="32.14,63.01 42.79,68.64 89.43,82.19 	"/>
	
		<rect x="22.65" y="130.04" transform="matrix(-4.513386e-11 1 -1 -4.513386e-11 160.385 106.2112)" class="st0" width="8.87" height="6.52"/>
	<text transform="matrix(1 0 0 1 428.5339 73.5389)"><tspan x="0" y="0" class="st0 st6 st7">WEST</tspan><tspan x="1.57" y="68.69" class="st0 st6 st7">MASS</tspan></text>
</g>
</svg>
